<svg width="134" height="26" viewBox="0 0 134 26" fill="none" xmlns="http://www.w3.org/2000/svg">
<path d="M0.98 0.079999C0.836 0.079999 0.704 0.139999 0.584 0.259999C0.488 0.355999 0.44 0.475999 0.44 0.619998V25.46C0.44 25.604 0.488 25.736 0.584 25.856C0.704 25.952 0.836 26 0.98 26H11.492C11.924 26 12.344 25.832 12.752 25.496L15.236 22.976C15.572 22.64 15.74 22.22 15.74 21.716V15.524C15.74 15.044 15.572 14.636 15.236 14.3L13.976 13.04L15.236 11.78C15.572 11.444 15.74 11.024 15.74 10.52V4.364C15.74 3.86 15.572 3.44 15.236 3.104L12.752 0.583999C12.344 0.247999 11.924 0.079999 11.492 0.079999H0.98ZM9.332 4.796C9.476 4.796 9.596 4.856 9.692 4.976C9.812 5.072 9.872 5.192 9.872 5.336V10.124C9.872 10.292 9.812 10.436 9.692 10.556C9.596 10.652 9.476 10.7 9.332 10.7H6.884C6.716 10.7 6.584 10.652 6.488 10.556C6.392 10.436 6.344 10.292 6.344 10.124V5.336C6.344 5.192 6.392 5.072 6.488 4.976C6.584 4.856 6.716 4.796 6.884 4.796H9.332ZM9.332 15.38C9.476 15.38 9.596 15.44 9.692 15.56C9.812 15.656 9.872 15.788 9.872 15.956V20.744C9.872 20.888 9.812 21.02 9.692 21.14C9.596 21.236 9.476 21.284 9.332 21.284H6.884C6.716 21.284 6.584 21.236 6.488 21.14C6.392 21.02 6.344 20.888 6.344 20.744V15.956C6.344 15.788 6.392 15.656 6.488 15.56C6.584 15.44 6.716 15.38 6.884 15.38H9.332ZM19.1558 0.079999C19.0118 0.079999 18.8798 0.139999 18.7598 0.259999C18.6638 0.355999 18.6158 0.475999 18.6158 0.619998V25.424C18.6158 25.592 18.6638 25.736 18.7598 25.856C18.8798 25.952 19.0238 26 19.1918 26H30.4238C30.5918 26 30.7238 25.952 30.8198 25.856C30.9398 25.736 30.9998 25.592 30.9998 25.424V21.86C30.9998 21.692 30.9398 21.56 30.8198 21.464C30.7238 21.344 30.5918 21.284 30.4238 21.284H25.0598C24.9158 21.284 24.7838 21.236 24.6638 21.14C24.5678 21.02 24.5198 20.876 24.5198 20.708V0.619998C24.5198 0.475999 24.4598 0.355999 24.3398 0.259999C24.2438 0.139999 24.1118 0.079999 23.9438 0.079999H19.1558ZM37.5625 0.079999C36.9865 0.079999 36.4945 0.283999 36.0865 0.692L33.7825 2.996C33.3745 3.404 33.1705 3.896 33.1705 4.472V21.608C33.1705 22.184 33.3745 22.676 33.7825 23.084L36.0865 25.388C36.4945 25.796 36.9865 26 37.5625 26H44.0785C44.6545 26 45.1465 25.796 45.5545 25.388L47.8585 23.084C48.2665 22.676 48.4705 22.184 48.4705 21.608V4.472C48.4705 3.896 48.2665 3.404 47.8585 2.996L45.5545 0.692C45.1465 0.283999 44.6545 0.079999 44.0785 0.079999H37.5625ZM42.0625 4.796C42.2065 4.796 42.3265 4.856 42.4225 4.976C42.5425 5.072 42.6025 5.192 42.6025 5.336V20.744C42.6025 20.888 42.5425 21.02 42.4225 21.14C42.3265 21.236 42.2065 21.284 42.0625 21.284H39.6145C39.4465 21.284 39.3145 21.236 39.2185 21.14C39.1225 21.02 39.0745 20.888 39.0745 20.744V5.336C39.0745 5.192 39.1225 5.072 39.2185 4.976C39.3145 4.856 39.4465 4.796 39.6145 4.796H42.0625ZM61.3543 0.079999C61.1863 0.079999 61.0423 0.139999 60.9223 0.259999C60.8263 0.355999 60.7783 0.487999 60.7783 0.655998V11.888C60.7783 11.984 60.7303 12.032 60.6343 12.032C60.5863 12.032 60.5383 11.996 60.4902 11.924L57.1063 0.512C56.9863 0.223999 56.8063 0.079999 56.5663 0.079999H51.9223C51.7543 0.079999 51.6103 0.139999 51.4903 0.259999C51.3943 0.355999 51.3463 0.487999 51.3463 0.655998V25.424C51.3463 25.592 51.3943 25.736 51.4903 25.856C51.6103 25.952 51.7543 26 51.9223 26H56.6383C56.8063 26 56.9503 25.952 57.0703 25.856C57.1903 25.736 57.2503 25.592 57.2503 25.424V14.192C57.2503 14.096 57.2863 14.048 57.3583 14.048C57.4543 14.048 57.5023 14.084 57.5023 14.156L60.8863 25.568C61.0063 25.856 61.1863 26 61.4263 26H66.0703C66.2383 26 66.3703 25.952 66.4663 25.856C66.5863 25.736 66.6463 25.592 66.6463 25.424V0.655998C66.6463 0.487999 66.5863 0.355999 66.4663 0.259999C66.3703 0.139999 66.2383 0.079999 66.0703 0.079999H61.3543ZM70.062 0.079999C69.918 0.079999 69.786 0.139999 69.666 0.259999C69.57 0.355999 69.522 0.475999 69.522 0.619998V25.46C69.522 25.604 69.57 25.736 69.666 25.856C69.786 25.952 69.918 26 70.062 26H80.466C81.018 26 81.498 25.808 81.906 25.424L84.246 23.048C84.63 22.688 84.822 22.22 84.822 21.644V4.436C84.822 3.86 84.63 3.392 84.246 3.032L81.906 0.655998C81.498 0.271999 81.018 0.079999 80.466 0.079999H70.062ZM78.378 4.796C78.546 4.796 78.678 4.856 78.774 4.976C78.894 5.072 78.954 5.192 78.954 5.336V20.744C78.954 20.888 78.894 21.02 78.774 21.14C78.678 21.236 78.546 21.284 78.378 21.284H75.966C75.822 21.284 75.69 21.236 75.57 21.14C75.474 21.02 75.426 20.888 75.426 20.744V5.336C75.426 5.192 75.474 5.072 75.57 4.976C75.69 4.856 75.822 4.796 75.966 4.796H78.378ZM88.2738 0.079999C88.1058 0.079999 87.9618 0.139999 87.8418 0.259999C87.7458 0.355999 87.6978 0.487999 87.6978 0.655998V25.424C87.6978 25.592 87.7458 25.736 87.8418 25.856C87.9618 25.952 88.1058 26 88.2738 26H93.0618C93.4218 26 93.6018 25.82 93.6018 25.46V0.655998C93.6018 0.487999 93.5418 0.355999 93.4218 0.259999C93.3258 0.139999 93.1938 0.079999 93.0258 0.079999H88.2738ZM97.0989 0.079999C96.9309 0.079999 96.7869 0.139999 96.6669 0.259999C96.5469 0.379999 96.4869 0.523999 96.4869 0.692V25.388C96.4869 25.556 96.5469 25.7 96.6669 25.82C96.7869 25.94 96.9309 26 97.0989 26H108.259C108.427 26 108.571 25.94 108.691 25.82C108.811 25.7 108.871 25.556 108.871 25.388V21.896C108.871 21.728 108.811 21.584 108.691 21.464C108.571 21.344 108.427 21.284 108.259 21.284H103.003C102.835 21.284 102.691 21.224 102.571 21.104C102.451 20.984 102.391 20.84 102.391 20.672V15.776C102.391 15.584 102.451 15.44 102.571 15.344C102.691 15.224 102.835 15.164 103.003 15.164H107.071C107.239 15.164 107.383 15.104 107.503 14.984C107.623 14.864 107.683 14.72 107.683 14.552V11.06C107.683 10.892 107.623 10.748 107.503 10.628C107.383 10.508 107.239 10.448 107.071 10.448H103.003C102.835 10.448 102.691 10.388 102.571 10.268C102.451 10.148 102.391 10.004 102.391 9.836V5.408C102.391 5.216 102.451 5.072 102.571 4.976C102.691 4.856 102.835 4.796 103.003 4.796H108.259C108.427 4.796 108.571 4.736 108.691 4.616C108.811 4.496 108.871 4.352 108.871 4.184V0.692C108.871 0.523999 108.811 0.379999 108.691 0.259999C108.571 0.139999 108.427 0.079999 108.259 0.079999H97.0989ZM116.173 0.692C115.861 1.94 115.405 3.344 114.805 4.904C114.229 6.44 113.653 7.844 113.077 9.116H110.737C110.977 8.204 111.205 7.232 111.421 6.2C111.661 5.144 111.877 4.112 112.069 3.104C112.261 2.072 112.417 1.136 112.537 0.295998H115.921L116.173 0.692ZM122.322 0.079999C121.818 0.079999 121.386 0.259999 121.026 0.619998L118.542 3.104C118.206 3.44 118.038 3.86 118.038 4.364V12.896C118.038 13.4 118.206 13.82 118.542 14.156L119.298 14.876C119.634 15.212 120.042 15.38 120.522 15.38H126.93C127.074 15.38 127.194 15.44 127.29 15.56C127.41 15.656 127.47 15.776 127.47 15.92V20.78C127.47 20.924 127.41 21.044 127.29 21.14C127.194 21.236 127.074 21.284 126.93 21.284H124.446C124.302 21.284 124.182 21.236 124.086 21.14C123.99 21.044 123.942 20.924 123.942 20.78V18.872C123.942 18.728 123.882 18.608 123.762 18.512C123.666 18.392 123.546 18.332 123.402 18.332H118.542C118.398 18.332 118.278 18.392 118.182 18.512C118.086 18.608 118.038 18.728 118.038 18.872V21.716C118.038 22.22 118.206 22.64 118.542 22.976L121.062 25.496C121.398 25.832 121.818 26 122.322 26H129.09C129.522 26 129.942 25.832 130.35 25.496L132.834 22.976C133.17 22.64 133.338 22.22 133.338 21.716V13.184C133.338 12.68 133.17 12.26 132.834 11.924L132.114 11.204C131.778 10.868 131.358 10.7 130.854 10.7H124.446C124.302 10.7 124.182 10.652 124.086 10.556C123.99 10.436 123.942 10.304 123.942 10.16V5.3C123.942 5.156 123.99 5.036 124.086 4.94C124.182 4.844 124.302 4.796 124.446 4.796H126.93C127.074 4.796 127.194 4.856 127.29 4.976C127.41 5.072 127.47 5.192 127.47 5.336V7.208C127.47 7.352 127.518 7.484 127.614 7.604C127.734 7.7 127.866 7.748 128.01 7.748H132.798C132.966 7.748 133.098 7.7 133.194 7.604C133.29 7.484 133.338 7.352 133.338 7.208V4.364C133.338 3.908 133.17 3.476 132.834 3.068L130.35 0.619998C130.014 0.259999 129.582 0.079999 129.054 0.079999H122.322Z" fill="black"/>
</svg>
